<svg xmlns="http://www.w3.org/2000/svg" viewBox="0 0 100 100" id="envelope"><path d="M94.99 21.87c-.01-.08-.01-.15-.03-.23-.01-.06-.03-.12-.04-.18-.02-.06-.04-.13-.06-.19l-.09-.18c-.03-.05-.05-.11-.09-.17s-.08-.11-.13-.17c-.03-.03-.05-.08-.09-.11 0-.01-.01-.02-.02-.03-.05-.05-.11-.09-.17-.14a.689.689 0 0 0-.13-.11c-.06-.04-.12-.07-.18-.1-.05-.03-.11-.07-.16-.09-.06-.03-.13-.04-.19-.07-.06-.01-.12-.04-.18-.05l-.18-.03c-.07 0-.14-.01-.21-.02H6.97c-.09 0-.17.02-.25.03-.05.01-.1.01-.14.02-.08.01-.15.04-.23.07-.05.01-.1.03-.14.05-.07.02-.13.06-.19.1-.05.03-.11.05-.16.09-.04.03-.09.07-.13.11-.06.05-.12.09-.17.14-.01.01-.02.02-.02.03-.04.03-.06.07-.09.11-.04.06-.09.11-.13.17-.03.06-.06.11-.09.17l-.09.18c-.02.06-.04.13-.06.19-.01.06-.03.12-.04.18-.02.08-.02.15-.03.23 0 .04-.01.08-.01.13v56c0 .05.01.09.01.13.01.08.01.15.03.23.01.06.03.12.04.18.02.06.04.13.06.19l.09.18c.03.06.05.11.09.17.04.06.09.11.13.17.03.04.05.08.09.11 0 .01.01.02.02.03.05.05.11.09.17.14.04.04.09.08.13.11.06.04.11.07.17.1.06.03.11.07.17.09.06.03.12.04.17.06.07.02.13.05.2.06.06.01.12.02.17.02l.22.03H93c.14 0 .27-.01.4-.04s.26-.07.38-.12c.03-.01.06-.03.08-.04.1-.05.19-.09.27-.15.04-.03.07-.06.11-.09.07-.06.14-.11.2-.17.01-.01.02-.02.02-.03.04-.03.06-.08.09-.12.05-.05.09-.1.13-.16.04-.06.06-.12.09-.18.03-.05.06-.11.09-.17.02-.06.04-.13.06-.2.01-.05.03-.11.04-.17.02-.08.02-.15.03-.23 0-.04.01-.08.01-.13V22c0-.05-.01-.09-.01-.13zM87.91 24 50 59.27 12.09 24h75.82zM9 26.59 34.16 50 9 73.41V26.59zM12.09 76 37.1 52.73l11.54 10.73c.38.36.87.54 1.36.54s.98-.18 1.36-.54L62.9 52.73 87.91 76H12.09zM91 73.41 65.84 50 91 26.59v46.82z"></path></svg>